<mxfile host="app.diagrams.net" modified="2024-07-01T07:48:14.704Z" agent="Mozilla/5.0 (Windows NT 10.0; Win64; x64) AppleWebKit/537.36 (KHTML, like Gecko) Chrome/126.0.0.0 Safari/537.36" etag="C6oivWbbOZE1g7Gwfa41" version="24.6.4" type="github">
  <diagram name="第 1 页" id="sw-BnQZJ3t7scZdAzCyP">
    <mxGraphModel dx="1050" dy="530" grid="1" gridSize="10" guides="1" tooltips="1" connect="1" arrows="1" fold="1" page="1" pageScale="1" pageWidth="827" pageHeight="1169" math="0" shadow="0">
      <root>
        <mxCell id="0" />
        <mxCell id="1" parent="0" />
        <mxCell id="qAqgaGx-vp8c4OJgNw6z-1" value="" style="rounded=0;whiteSpace=wrap;html=1;" vertex="1" parent="1">
          <mxGeometry x="199" y="90" width="430" height="60" as="geometry" />
        </mxCell>
        <mxCell id="qAqgaGx-vp8c4OJgNw6z-2" value="0" style="whiteSpace=wrap;html=1;aspect=fixed;" vertex="1" parent="1">
          <mxGeometry x="210" y="170" width="50" height="50" as="geometry" />
        </mxCell>
        <mxCell id="qAqgaGx-vp8c4OJgNw6z-3" value="1" style="whiteSpace=wrap;html=1;aspect=fixed;" vertex="1" parent="1">
          <mxGeometry x="280" y="170" width="50" height="50" as="geometry" />
        </mxCell>
        <mxCell id="qAqgaGx-vp8c4OJgNw6z-4" value="3" style="whiteSpace=wrap;html=1;aspect=fixed;" vertex="1" parent="1">
          <mxGeometry x="420" y="170" width="50" height="50" as="geometry" />
        </mxCell>
        <mxCell id="qAqgaGx-vp8c4OJgNw6z-5" value="4" style="whiteSpace=wrap;html=1;aspect=fixed;" vertex="1" parent="1">
          <mxGeometry x="490" y="170" width="50" height="50" as="geometry" />
        </mxCell>
        <mxCell id="qAqgaGx-vp8c4OJgNw6z-6" value="5" style="whiteSpace=wrap;html=1;aspect=fixed;" vertex="1" parent="1">
          <mxGeometry x="560" y="170" width="50" height="50" as="geometry" />
        </mxCell>
        <mxCell id="qAqgaGx-vp8c4OJgNw6z-7" value="2" style="whiteSpace=wrap;html=1;aspect=fixed;" vertex="1" parent="1">
          <mxGeometry x="350" y="170" width="50" height="50" as="geometry" />
        </mxCell>
        <mxCell id="qAqgaGx-vp8c4OJgNw6z-8" value="6" style="whiteSpace=wrap;html=1;aspect=fixed;" vertex="1" parent="1">
          <mxGeometry x="210" y="240" width="50" height="50" as="geometry" />
        </mxCell>
        <mxCell id="qAqgaGx-vp8c4OJgNw6z-9" value="7" style="whiteSpace=wrap;html=1;aspect=fixed;" vertex="1" parent="1">
          <mxGeometry x="280" y="240" width="50" height="50" as="geometry" />
        </mxCell>
        <mxCell id="qAqgaGx-vp8c4OJgNw6z-10" value="9" style="whiteSpace=wrap;html=1;aspect=fixed;" vertex="1" parent="1">
          <mxGeometry x="420" y="240" width="50" height="50" as="geometry" />
        </mxCell>
        <mxCell id="qAqgaGx-vp8c4OJgNw6z-11" value="+" style="whiteSpace=wrap;html=1;aspect=fixed;" vertex="1" parent="1">
          <mxGeometry x="490" y="240" width="50" height="50" as="geometry" />
        </mxCell>
        <mxCell id="qAqgaGx-vp8c4OJgNw6z-12" value="&lt;div style=&quot;text-align: start;&quot;&gt;-&lt;/div&gt;" style="whiteSpace=wrap;html=1;aspect=fixed;" vertex="1" parent="1">
          <mxGeometry x="560" y="240" width="50" height="50" as="geometry" />
        </mxCell>
        <mxCell id="qAqgaGx-vp8c4OJgNw6z-13" value="8" style="whiteSpace=wrap;html=1;aspect=fixed;" vertex="1" parent="1">
          <mxGeometry x="350" y="240" width="50" height="50" as="geometry" />
        </mxCell>
        <mxCell id="qAqgaGx-vp8c4OJgNw6z-14" value="*" style="whiteSpace=wrap;html=1;aspect=fixed;" vertex="1" parent="1">
          <mxGeometry x="210" y="300" width="50" height="50" as="geometry" />
        </mxCell>
        <mxCell id="qAqgaGx-vp8c4OJgNw6z-15" value="/" style="whiteSpace=wrap;html=1;aspect=fixed;" vertex="1" parent="1">
          <mxGeometry x="280" y="300" width="50" height="50" as="geometry" />
        </mxCell>
        <mxCell id="qAqgaGx-vp8c4OJgNw6z-16" value="(" style="whiteSpace=wrap;html=1;aspect=fixed;" vertex="1" parent="1">
          <mxGeometry x="420" y="300" width="50" height="50" as="geometry" />
        </mxCell>
        <mxCell id="qAqgaGx-vp8c4OJgNw6z-17" value=")" style="whiteSpace=wrap;html=1;aspect=fixed;" vertex="1" parent="1">
          <mxGeometry x="490" y="300" width="50" height="50" as="geometry" />
        </mxCell>
        <mxCell id="qAqgaGx-vp8c4OJgNw6z-19" value="=" style="whiteSpace=wrap;html=1;aspect=fixed;" vertex="1" parent="1">
          <mxGeometry x="350" y="300" width="50" height="50" as="geometry" />
        </mxCell>
        <mxCell id="qAqgaGx-vp8c4OJgNw6z-23" value="clr" style="whiteSpace=wrap;html=1;aspect=fixed;" vertex="1" parent="1">
          <mxGeometry x="560" y="300" width="50" height="50" as="geometry" />
        </mxCell>
      </root>
    </mxGraphModel>
  </diagram>
</mxfile>
